<svg version="1.1" viewBox="0.0 0.0 960.0 720.0" fill="none" stroke="none" stroke-linecap="square" stroke-miterlimit="10" xmlns:xlink="http://www.w3.org/1999/xlink" xmlns="http://www.w3.org/2000/svg"><clipPath id="p.0"><path d="m0 0l960.0 0l0 720.0l-960.0 0l0 -720.0z" clip-rule="nonzero"/></clipPath><g clip-path="url(#p.0)"><path fill="#000000" fill-opacity="0.0" d="m0 0l960.0 0l0 720.0l-960.0 0z" fill-rule="evenodd"/><path fill="#1166ac" d="m213.86613 438.79004l47.047256 -52.179016l0 28.525665l0 0c75.3703 -16.711914 130.98047 -71.548676 139.90173 -137.95596l0 0c10.766602 80.143616 -48.9411 154.83029 -139.90173 174.99908l0 28.525696z" fill-rule="evenodd"/><path fill="#0d5189" d="m402.0551 295.7023l0 0c0 -89.254364 -84.255066 -161.60931 -188.18898 -161.60931l0 -37.04312l0 0c103.933914 0 188.18898 72.35495 188.18898 161.60931z" fill-rule="evenodd"/><path fill="#000000" fill-opacity="0.0" d="m402.0551 295.7023l0 0c0 -89.254364 -84.255066 -161.60931 -188.18898 -161.60931l0 -37.04312l0 0c103.933914 0 188.18898 72.35495 188.18898 161.60931l0 37.04312l0 0c0 73.69354 -58.052826 138.05414 -141.14172 156.47751l0 28.525696l-47.047256 -41.915466l47.047256 -52.179016l0 28.525665l0 0c75.3703 -16.711914 130.98047 -71.548676 139.90173 -137.95596" fill-rule="evenodd"/><path stroke="#ffffff" stroke-width="1.0" stroke-linejoin="round" stroke-linecap="butt" d="m402.0551 295.7023l0 0c0 -89.254364 -84.255066 -161.60931 -188.18898 -161.60931l0 -37.04312l0 0c103.933914 0 188.18898 72.35495 188.18898 161.60931l0 37.04312l0 0c0 73.69354 -58.052826 138.05414 -141.14172 156.47751l0 28.525696l-47.047256 -41.915466l47.047256 -52.179016l0 28.525665l0 0c75.3703 -16.711914 130.98047 -71.548676 139.90173 -137.95596" fill-rule="evenodd"/></g></svg>