<svg version="1.1" viewBox="0.0 0.0 103.16010498687665 308.9790026246719" fill="none" stroke="none" stroke-linecap="square" stroke-miterlimit="10" xmlns:xlink="http://www.w3.org/1999/xlink" xmlns="http://www.w3.org/2000/svg"><clipPath id="p.0"><path d="m0 0l103.1601 0l0 308.979l-103.1601 0l0 -308.979z" clip-rule="nonzero"/></clipPath><g clip-path="url(#p.0)"><path fill="#000000" fill-opacity="0.0" d="m0 0l103.1601 0l0 308.979l-103.1601 0z" fill-rule="evenodd"/><path fill="#7abb18" d="m0 286.5118l26.023623 -30.409943l0 15.778656l0 0c43.19114 -14.798584 74.475746 -64.47084 77.78417 -123.50212c3.7352676 66.64729 -29.020668 127.284225 -77.78417 143.99208l0 15.7786255z" fill-rule="evenodd"/><path fill="#619513" d="m104.09449 158.62337l0 0c0 -76.28897 -46.60469 -138.1334 -104.09449 -138.1334l-6.373949E-15 -20.48996l-6.5099524E-14 0c27.607574 0 54.084415 14.5533 73.60592 40.45834c19.5215 25.90504 30.488571 61.039814 30.488571 97.67508z" fill-rule="evenodd"/><path fill="#000000" fill-opacity="0.0" d="m104.09449 158.62337l0 0c0 -76.28897 -46.60469 -138.1334 -104.09449 -138.1334l-6.373949E-15 -20.48996l-6.5099524E-14 0c27.607574 0 54.084415 14.5533 73.60592 40.45834c19.5215 25.90504 30.488571 61.039814 30.488571 97.67508l0 20.489944l0 0c0 62.9886 -32.11123 117.999954 -78.07087 133.74712l0 15.7786255l-26.023623 -21.637299l26.023623 -30.409943l0 15.778656l0 0c43.19114 -14.798584 74.475746 -64.47084 77.78417 -123.50212" fill-rule="evenodd"/><path stroke="#ffffff" stroke-width="1.0" stroke-linejoin="round" stroke-linecap="butt" d="m104.09449 158.62337l0 0c0 -76.28897 -46.60469 -138.1334 -104.09449 -138.1334l-6.373949E-15 -20.48996l-6.5099524E-14 0c27.607574 0 54.084415 14.5533 73.60592 40.45834c19.5215 25.90504 30.488571 61.039814 30.488571 97.67508l0 20.489944l0 0c0 62.9886 -32.11123 117.999954 -78.07087 133.74712l0 15.7786255l-26.023623 -21.637299l26.023623 -30.409943l0 15.778656l0 0c43.19114 -14.798584 74.475746 -64.47084 77.78417 -123.50212" fill-rule="evenodd"/></g></svg>