<svg version="1.1" viewBox="0.0 0.0 960.0 720.0" fill="none" stroke="none" stroke-linecap="square" stroke-miterlimit="10" xmlns:xlink="http://www.w3.org/1999/xlink" xmlns="http://www.w3.org/2000/svg"><clipPath id="p.0"><path d="m0 0l960.0 0l0 720.0l-960.0 0l0 -720.0z" clip-rule="nonzero"/></clipPath><g clip-path="url(#p.0)"><path fill="#000000" fill-opacity="0.0" d="m0 0l960.0 0l0 720.0l-960.0 0z" fill-rule="evenodd"/><path fill="#7abb18" d="m297.93964 459.81628l26.02362 -30.449463l0 15.778656l0 0c43.21576 -14.940369 74.508514 -65.1069 77.789276 -124.706726c3.7000122 67.216064 -29.051025 128.34708 -77.789276 145.19669l0 15.778656z" fill-rule="evenodd"/><path fill="#619513" d="m402.03412 330.68375l0 0c0 -76.976074 -46.604675 -139.37752 -104.09448 -139.37752l0 -20.48996l0 0c27.607574 0 54.08441 14.684372 73.60593 40.82274c19.521484 26.138351 30.488556 61.58957 30.488556 98.55478z" fill-rule="evenodd"/><path fill="#000000" fill-opacity="0.0" d="m402.03412 330.68375l0 0c0 -76.976074 -46.604675 -139.37752 -104.09448 -139.37752l0 -20.48996l0 0c27.607574 0 54.08441 14.684372 73.60593 40.82274c19.521484 26.138351 30.488556 61.58957 30.488556 98.55478l0 20.48996l0 0c0 63.55591 -32.111237 119.06271 -78.07086 134.95169l0 15.778656l-26.02362 -21.597809l26.02362 -30.449463l0 15.778656l0 0c43.21576 -14.940369 74.508514 -65.1069 77.789276 -124.706726" fill-rule="evenodd"/><path stroke="#ffffff" stroke-width="1.0" stroke-linejoin="round" stroke-linecap="butt" d="m402.03412 330.68375l0 0c0 -76.976074 -46.604675 -139.37752 -104.09448 -139.37752l0 -20.48996l0 0c27.607574 0 54.08441 14.684372 73.60593 40.82274c19.521484 26.138351 30.488556 61.58957 30.488556 98.55478l0 20.48996l0 0c0 63.55591 -32.111237 119.06271 -78.07086 134.95169l0 15.778656l-26.02362 -21.597809l26.02362 -30.449463l0 15.778656l0 0c43.21576 -14.940369 74.508514 -65.1069 77.789276 -124.706726" fill-rule="evenodd"/></g></svg>