<svg width="95" height="60" viewBox="0 0 95 60" fill="none" xmlns="http://www.w3.org/2000/svg">
    <path d="M14.098 5.54688H10.9872C10.9304 5.14441 10.8144 4.78693 10.6392 4.47443C10.464 4.1572 10.2391 3.88731 9.96449 3.66477C9.68987 3.44223 9.37263 3.27178 9.01278 3.15341C8.65767 3.03504 8.27178 2.97585 7.85511 2.97585C7.10227 2.97585 6.4465 3.16288 5.88778 3.53693C5.32907 3.90625 4.89583 4.44602 4.58807 5.15625C4.2803 5.86174 4.12642 6.71875 4.12642 7.72727C4.12642 8.7642 4.2803 9.63542 4.58807 10.3409C4.90057 11.0464 5.33617 11.5791 5.89489 11.9389C6.4536 12.2988 7.09991 12.4787 7.83381 12.4787C8.24574 12.4787 8.62689 12.4242 8.97727 12.3153C9.33239 12.2064 9.64725 12.0478 9.92188 11.8395C10.1965 11.6264 10.4238 11.3684 10.6037 11.0653C10.7884 10.7623 10.9162 10.4167 10.9872 10.0284L14.098 10.0426C14.0175 10.7102 13.8163 11.3542 13.4943 11.9744C13.1771 12.59 12.7486 13.1416 12.2088 13.6293C11.6738 14.1122 11.0346 14.4957 10.2912 14.7798C9.55256 15.0592 8.71686 15.1989 7.78409 15.1989C6.48674 15.1989 5.3267 14.9053 4.30398 14.3182C3.28598 13.7311 2.48106 12.8812 1.8892 11.7685C1.30208 10.6558 1.00852 9.30871 1.00852 7.72727C1.00852 6.1411 1.30682 4.79167 1.90341 3.67898C2.5 2.56629 3.30966 1.71875 4.33239 1.13636C5.35511 0.549242 6.50568 0.255681 7.78409 0.255681C8.62689 0.255681 9.40814 0.374053 10.1278 0.610795C10.8523 0.847538 11.4938 1.19318 12.0526 1.64773C12.6113 2.09754 13.0658 2.64915 13.4162 3.30256C13.7713 3.95597 13.9986 4.70407 14.098 5.54688ZM19.3572 15.206C18.6612 15.206 18.041 15.0852 17.4964 14.8438C16.9519 14.5975 16.5211 14.2353 16.2038 13.7571C15.8913 13.2741 15.7351 12.6728 15.7351 11.9531C15.7351 11.3471 15.8464 10.8381 16.0689 10.4261C16.2914 10.0142 16.5945 9.68277 16.978 9.43182C17.3615 9.18087 17.7971 8.99148 18.2848 8.86364C18.7772 8.7358 19.2933 8.64583 19.8331 8.59375C20.4676 8.52746 20.9789 8.46591 21.3672 8.40909C21.7554 8.34754 22.0372 8.25758 22.2124 8.1392C22.3875 8.02083 22.4751 7.84564 22.4751 7.61364V7.57102C22.4751 7.12121 22.3331 6.7732 22.049 6.52699C21.7696 6.28078 21.3719 6.15767 20.8558 6.15767C20.3113 6.15767 19.8781 6.27841 19.5561 6.51989C19.2341 6.75663 19.0211 7.05492 18.9169 7.41477L16.1186 7.1875C16.2607 6.52462 16.54 5.9517 16.9567 5.46875C17.3733 4.98106 17.9107 4.60701 18.5689 4.34659C19.2318 4.08144 19.9988 3.94886 20.87 3.94886C21.4761 3.94886 22.0561 4.01989 22.6101 4.16193C23.1688 4.30398 23.6636 4.52415 24.0945 4.82244C24.5301 5.12074 24.8733 5.50426 25.1243 5.97301C25.3752 6.43703 25.5007 6.99337 25.5007 7.64205V15H22.6314V13.4872H22.5462C22.371 13.8281 22.1366 14.1288 21.843 14.3892C21.5495 14.6449 21.1967 14.8461 20.7848 14.9929C20.3729 15.1349 19.897 15.206 19.3572 15.206ZM20.2237 13.1179C20.6688 13.1179 21.0618 13.0303 21.4027 12.8551C21.7436 12.6752 22.0111 12.4337 22.2053 12.1307C22.3994 11.8277 22.4964 11.4844 22.4964 11.1009V9.94318C22.4018 10.0047 22.2715 10.0616 22.1058 10.1136C21.9448 10.161 21.7625 10.206 21.5589 10.2486C21.3554 10.2865 21.1518 10.322 20.9482 10.3551C20.7446 10.3835 20.5599 10.4096 20.3942 10.4332C20.0391 10.4853 19.7289 10.5682 19.4638 10.6818C19.1986 10.7955 18.9927 10.9493 18.8459 11.1435C18.6991 11.3329 18.6257 11.5696 18.6257 11.8537C18.6257 12.2656 18.7749 12.5805 19.0732 12.7983C19.3762 13.0114 19.7597 13.1179 20.2237 13.1179ZM27.848 15V4.09091H30.7812V5.99432H30.8949C31.0938 5.31723 31.4276 4.80587 31.8963 4.46023C32.3651 4.10985 32.9048 3.93466 33.5156 3.93466C33.6671 3.93466 33.8305 3.94413 34.0057 3.96307C34.1809 3.98201 34.3348 4.00805 34.4673 4.04119V6.72585C34.3253 6.68324 34.1288 6.64536 33.8778 6.61222C33.6269 6.57907 33.3973 6.5625 33.1889 6.5625C32.7438 6.5625 32.3461 6.65956 31.9957 6.85369C31.6501 7.04309 31.3755 7.30824 31.1719 7.64915C30.973 7.99006 30.8736 8.38305 30.8736 8.82812V15H27.848ZM39.5437 15.1776C38.7151 15.1776 37.9646 14.9645 37.2923 14.5384C36.6246 14.1075 36.0943 13.4754 35.7013 12.642C35.3131 11.804 35.119 10.7765 35.119 9.55966C35.119 8.30966 35.3202 7.27036 35.7227 6.44176C36.1251 5.60843 36.6602 4.9858 37.3278 4.57386C38.0001 4.1572 38.7364 3.94886 39.5366 3.94886C40.1474 3.94886 40.6564 4.05303 41.0636 4.26136C41.4755 4.46496 41.8069 4.72064 42.0579 5.02841C42.3136 5.33144 42.5077 5.62973 42.6403 5.9233H42.7326V0.454545H45.7511V15H42.7681V13.2528H42.6403C42.4982 13.5559 42.297 13.8565 42.0366 14.1548C41.7809 14.4484 41.4471 14.6922 41.0352 14.8864C40.628 15.0805 40.1308 15.1776 39.5437 15.1776ZM40.5025 12.7699C40.9902 12.7699 41.4021 12.6373 41.7383 12.3722C42.0792 12.1023 42.3396 11.7259 42.5195 11.2429C42.7042 10.7599 42.7965 10.1941 42.7965 9.54545C42.7965 8.89678 42.7066 8.33333 42.5266 7.85511C42.3467 7.37689 42.0863 7.00758 41.7454 6.74716C41.4045 6.48674 40.9902 6.35653 40.5025 6.35653C40.0053 6.35653 39.5863 6.49148 39.2454 6.76136C38.9045 7.03125 38.6464 7.4053 38.4712 7.88352C38.296 8.36174 38.2085 8.91572 38.2085 9.54545C38.2085 10.1799 38.296 10.741 38.4712 11.2287C38.6512 11.7116 38.9092 12.0904 39.2454 12.3651C39.5863 12.6349 40.0053 12.7699 40.5025 12.7699ZM57.3153 7.2017L54.5455 7.37216C54.4981 7.13542 54.3963 6.92235 54.2401 6.73295C54.0838 6.53883 53.8778 6.38494 53.6222 6.27131C53.3712 6.15294 53.0705 6.09375 52.7202 6.09375C52.2514 6.09375 51.8561 6.19318 51.5341 6.39205C51.2121 6.58617 51.0511 6.84659 51.0511 7.1733C51.0511 7.43371 51.1553 7.65388 51.3636 7.83381C51.572 8.01373 51.9295 8.15814 52.4361 8.26705L54.4105 8.66477C55.4711 8.88258 56.2618 9.23295 56.7827 9.71591C57.3035 10.1989 57.5639 10.8333 57.5639 11.6193C57.5639 12.3343 57.3532 12.9616 56.9318 13.5014C56.5152 14.0412 55.9422 14.4626 55.2131 14.7656C54.4886 15.0639 53.6529 15.2131 52.706 15.2131C51.2618 15.2131 50.1113 14.9124 49.2543 14.3111C48.402 13.705 47.9025 12.8812 47.7557 11.8395L50.7315 11.6832C50.8215 12.1236 51.0393 12.4598 51.3849 12.6918C51.7306 12.919 52.1733 13.0327 52.7131 13.0327C53.2434 13.0327 53.6695 12.9309 53.9915 12.7273C54.3182 12.5189 54.4839 12.2514 54.4886 11.9247C54.4839 11.6501 54.3679 11.4252 54.1406 11.25C53.9134 11.0701 53.563 10.9328 53.0895 10.8381L51.2003 10.4616C50.1349 10.2486 49.3419 9.87926 48.821 9.35369C48.3049 8.82812 48.0469 8.15814 48.0469 7.34375C48.0469 6.64299 48.2363 6.0393 48.6151 5.53267C48.9986 5.02604 49.536 4.63542 50.2273 4.3608C50.9233 4.08617 51.7377 3.94886 52.6705 3.94886C54.0483 3.94886 55.1326 4.24006 55.9233 4.82244C56.7188 5.40483 57.1828 6.19792 57.3153 7.2017ZM3.77131 35H0.475852L5.49716 20.4545H9.46023L14.4744 35H11.179L7.53551 23.7784H7.42188L3.77131 35ZM3.56534 29.2827H11.3494V31.6832H3.56534V29.2827ZM20.5753 39.3182C19.5952 39.3182 18.7547 39.1832 18.054 38.9134C17.358 38.6482 16.804 38.286 16.392 37.8267C15.9801 37.3674 15.7126 36.8513 15.5895 36.2784L18.3878 35.902C18.473 36.1198 18.608 36.3234 18.7926 36.5128C18.9773 36.7022 19.2211 36.8537 19.5241 36.9673C19.8319 37.0857 20.206 37.1449 20.6463 37.1449C21.3045 37.1449 21.8466 36.9839 22.2727 36.6619C22.7036 36.3447 22.919 35.812 22.919 35.0639V33.0682H22.7912C22.6586 33.3712 22.4598 33.6577 22.1946 33.9276C21.9295 34.1974 21.5885 34.4176 21.1719 34.5881C20.7552 34.7585 20.258 34.8438 19.6804 34.8438C18.8613 34.8438 18.1155 34.6544 17.4432 34.2756C16.7756 33.892 16.2429 33.3073 15.8452 32.5213C15.4522 31.7306 15.2557 30.7315 15.2557 29.5241C15.2557 28.2884 15.4569 27.2562 15.8594 26.4276C16.2618 25.599 16.7969 24.9787 17.4645 24.5668C18.1368 24.1548 18.8731 23.9489 19.6733 23.9489C20.2841 23.9489 20.7955 24.053 21.2074 24.2614C21.6193 24.465 21.9508 24.7206 22.2017 25.0284C22.4574 25.3314 22.6539 25.6297 22.7912 25.9233H22.9048V24.0909H25.9091V35.1065C25.9091 36.0346 25.6818 36.8111 25.2273 37.4361C24.7727 38.0611 24.143 38.5298 23.3381 38.8423C22.5379 39.1596 21.617 39.3182 20.5753 39.3182ZM20.6392 32.571C21.1269 32.571 21.5388 32.4503 21.875 32.2088C22.2159 31.9626 22.4763 31.6122 22.6562 31.1577C22.8409 30.6984 22.9332 30.1491 22.9332 29.5099C22.9332 28.8707 22.8433 28.3168 22.6634 27.848C22.4834 27.3745 22.223 27.0076 21.8821 26.7472C21.5412 26.4867 21.1269 26.3565 20.6392 26.3565C20.142 26.3565 19.723 26.4915 19.3821 26.7614C19.0412 27.0265 18.7831 27.3958 18.608 27.8693C18.4328 28.3428 18.3452 28.8897 18.3452 29.5099C18.3452 30.1397 18.4328 30.6842 18.608 31.1435C18.7879 31.598 19.0459 31.9508 19.3821 32.2017C19.723 32.4479 20.142 32.571 20.6392 32.571ZM31.4276 35.206C30.7315 35.206 30.1113 35.0852 29.5668 34.8438C29.0223 34.5975 28.5914 34.2353 28.2741 33.7571C27.9616 33.2741 27.8054 32.6728 27.8054 31.9531C27.8054 31.3471 27.9167 30.8381 28.1392 30.4261C28.3617 30.0142 28.6648 29.6828 29.0483 29.4318C29.4318 29.1809 29.8674 28.9915 30.3551 28.8636C30.8475 28.7358 31.3636 28.6458 31.9034 28.5938C32.5379 28.5275 33.0492 28.4659 33.4375 28.4091C33.8258 28.3475 34.1075 28.2576 34.2827 28.1392C34.4579 28.0208 34.5455 27.8456 34.5455 27.6136V27.571C34.5455 27.1212 34.4034 26.7732 34.1193 26.527C33.84 26.2808 33.4422 26.1577 32.9261 26.1577C32.3816 26.1577 31.9484 26.2784 31.6264 26.5199C31.3045 26.7566 31.0914 27.0549 30.9872 27.4148L28.1889 27.1875C28.331 26.5246 28.6103 25.9517 29.027 25.4688C29.4437 24.9811 29.9811 24.607 30.6392 24.3466C31.3021 24.0814 32.0691 23.9489 32.9403 23.9489C33.5464 23.9489 34.1264 24.0199 34.6804 24.1619C35.2391 24.304 35.7339 24.5241 36.1648 24.8224C36.6004 25.1207 36.9437 25.5043 37.1946 25.973C37.4455 26.437 37.571 26.9934 37.571 27.642V35H34.7017V33.4872H34.6165C34.4413 33.8281 34.2069 34.1288 33.9134 34.3892C33.6198 34.6449 33.267 34.8461 32.8551 34.9929C32.4432 35.1349 31.9673 35.206 31.4276 35.206ZM32.294 33.1179C32.7391 33.1179 33.1321 33.0303 33.473 32.8551C33.8139 32.6752 34.0814 32.4337 34.2756 32.1307C34.4697 31.8277 34.5668 31.4844 34.5668 31.1009V29.9432C34.4721 30.0047 34.3419 30.0616 34.1761 30.1136C34.0152 30.161 33.8329 30.206 33.6293 30.2486C33.4257 30.2865 33.2221 30.322 33.0185 30.3551C32.8149 30.3835 32.6302 30.4096 32.4645 30.4332C32.1094 30.4853 31.7992 30.5682 31.5341 30.6818C31.2689 30.7955 31.063 30.9493 30.9162 31.1435C30.7694 31.3329 30.696 31.5696 30.696 31.8537C30.696 32.2656 30.8452 32.5805 31.1435 32.7983C31.4465 33.0114 31.83 33.1179 32.294 33.1179ZM39.9183 35V24.0909H42.9439V35H39.9183ZM41.4382 22.6847C40.9884 22.6847 40.6025 22.5355 40.2805 22.2372C39.9633 21.9342 39.8047 21.572 39.8047 21.1506C39.8047 20.7339 39.9633 20.3764 40.2805 20.0781C40.6025 19.7751 40.9884 19.6236 41.4382 19.6236C41.888 19.6236 42.2715 19.7751 42.5888 20.0781C42.9107 20.3764 43.0717 20.7339 43.0717 21.1506C43.0717 21.572 42.9107 21.9342 42.5888 22.2372C42.2715 22.5355 41.888 22.6847 41.4382 22.6847ZM48.3931 28.6932V35H45.3675V24.0909H48.2511V26.0156H48.3789C48.6204 25.3812 49.0252 24.8793 49.5934 24.5099C50.1616 24.1359 50.8505 23.9489 51.6602 23.9489C52.4177 23.9489 53.0782 24.1146 53.6417 24.446C54.2051 24.7775 54.6431 25.2509 54.9556 25.8665C55.2681 26.4773 55.4244 27.2064 55.4244 28.054V35H52.3988V28.5938C52.4035 27.9261 52.2331 27.4053 51.8874 27.0312C51.5418 26.6525 51.0659 26.4631 50.4599 26.4631C50.0527 26.4631 49.6928 26.5507 49.3803 26.7259C49.0726 26.901 48.8311 27.1567 48.6559 27.4929C48.4854 27.8243 48.3978 28.2244 48.3931 28.6932ZM66.8857 27.2017L64.1158 27.3722C64.0684 27.1354 63.9666 26.9223 63.8104 26.733C63.6541 26.5388 63.4482 26.3849 63.1925 26.2713C62.9415 26.1529 62.6409 26.0938 62.2905 26.0938C61.8217 26.0938 61.4264 26.1932 61.1044 26.392C60.7824 26.5862 60.6214 26.8466 60.6214 27.1733C60.6214 27.4337 60.7256 27.6539 60.9339 27.8338C61.1423 28.0137 61.4998 28.1581 62.0064 28.267L63.9808 28.6648C65.0414 28.8826 65.8321 29.233 66.353 29.7159C66.8738 30.1989 67.1342 30.8333 67.1342 31.6193C67.1342 32.3343 66.9235 32.9616 66.5021 33.5014C66.0855 34.0412 65.5125 34.4626 64.7834 34.7656C64.0589 35.0639 63.2232 35.2131 62.2763 35.2131C60.8321 35.2131 59.6816 34.9124 58.8246 34.3111C57.9723 33.705 57.4728 32.8812 57.326 31.8395L60.3018 31.6832C60.3918 32.1236 60.6096 32.4598 60.9553 32.6918C61.3009 32.919 61.7436 33.0327 62.2834 33.0327C62.8137 33.0327 63.2398 32.9309 63.5618 32.7273C63.8885 32.5189 64.0542 32.2514 64.0589 31.9247C64.0542 31.6501 63.9382 31.4252 63.7109 31.25C63.4837 31.0701 63.1333 30.9328 62.6598 30.8381L60.7706 30.4616C59.7053 30.2486 58.9122 29.8793 58.3913 29.3537C57.8752 28.8281 57.6172 28.1581 57.6172 27.3438C57.6172 26.643 57.8066 26.0393 58.1854 25.5327C58.5689 25.026 59.1063 24.6354 59.7976 24.3608C60.4936 24.0862 61.308 23.9489 62.2408 23.9489C63.6186 23.9489 64.7029 24.2401 65.4936 24.8224C66.2891 25.4048 66.7531 26.1979 66.8857 27.2017ZM74.842 24.0909V26.3636H68.2724V24.0909H74.842ZM69.7638 21.4773H72.7894V31.6477C72.7894 31.9271 72.832 32.1449 72.9173 32.3011C73.0025 32.4527 73.1209 32.5592 73.2724 32.6207C73.4286 32.6823 73.6085 32.7131 73.8121 32.7131C73.9542 32.7131 74.0962 32.7012 74.2383 32.6776C74.3803 32.6491 74.4892 32.6278 74.565 32.6136L75.0408 34.8651C74.8893 34.9124 74.6763 34.9669 74.4016 35.0284C74.127 35.0947 73.7932 35.1349 73.4002 35.1491C72.671 35.1776 72.0318 35.0805 71.4826 34.858C70.9381 34.6354 70.5143 34.2898 70.2113 33.821C69.9083 33.3523 69.7591 32.7604 69.7638 32.0455V21.4773ZM1.2642 55V40.4545H4.33949V46.456H10.5824V40.4545H13.6506V55H10.5824V48.9915H4.33949V55H1.2642ZM23.125 50.3551V44.0909H26.1506V55H23.2457V53.0185H23.1321C22.8859 53.6577 22.4763 54.1714 21.9034 54.5597C21.3352 54.9479 20.6416 55.142 19.8224 55.142C19.0933 55.142 18.4517 54.9763 17.8977 54.6449C17.3438 54.3134 16.9105 53.8423 16.598 53.2315C16.2902 52.6207 16.134 51.8892 16.1293 51.0369V44.0909H19.1548V50.4972C19.1596 51.1411 19.3324 51.6501 19.6733 52.0241C20.0142 52.3982 20.4711 52.5852 21.044 52.5852C21.4086 52.5852 21.7495 52.5024 22.0668 52.3366C22.384 52.1662 22.6397 51.9152 22.8338 51.5838C23.0327 51.2524 23.1297 50.8428 23.125 50.3551ZM28.5707 55V44.0909H31.4542V46.0156H31.582C31.8093 45.3764 32.1881 44.8722 32.7184 44.5028C33.2487 44.1335 33.8832 43.9489 34.6218 43.9489C35.3699 43.9489 36.0067 44.1359 36.5323 44.5099C37.0579 44.8793 37.4083 45.3812 37.5835 46.0156H37.6971C37.9196 45.3906 38.3221 44.8911 38.9045 44.517C39.4916 44.1383 40.1853 43.9489 40.9854 43.9489C42.0034 43.9489 42.8297 44.2732 43.4641 44.9219C44.1033 45.5658 44.4229 46.4796 44.4229 47.6634V55H41.4045V48.2599C41.4045 47.6539 41.2435 47.1993 40.9215 46.8963C40.5996 46.5933 40.1971 46.4418 39.7141 46.4418C39.1649 46.4418 38.7364 46.617 38.4286 46.9673C38.1209 47.313 37.967 47.7699 37.967 48.3381V55H35.0337V48.196C35.0337 47.661 34.8799 47.2348 34.5721 46.9176C34.2691 46.6004 33.869 46.4418 33.3718 46.4418C33.0356 46.4418 32.7326 46.527 32.4627 46.6974C32.1976 46.8632 31.9869 47.0975 31.8306 47.4006C31.6744 47.6989 31.5962 48.0492 31.5962 48.4517V55H28.5707ZM49.9237 55.206C49.2276 55.206 48.6074 55.0852 48.0629 54.8438C47.5183 54.5975 47.0875 54.2353 46.7702 53.7571C46.4577 53.2741 46.3015 52.6728 46.3015 51.9531C46.3015 51.3471 46.4128 50.8381 46.6353 50.4261C46.8578 50.0142 47.1609 49.6828 47.5444 49.4318C47.9279 49.1809 48.3635 48.9915 48.8512 48.8636C49.3436 48.7358 49.8597 48.6458 50.3995 48.5938C51.034 48.5275 51.5453 48.4659 51.9336 48.4091C52.3219 48.3475 52.6036 48.2576 52.7788 48.1392C52.954 48.0208 53.0415 47.8456 53.0415 47.6136V47.571C53.0415 47.1212 52.8995 46.7732 52.6154 46.527C52.3361 46.2808 51.9383 46.1577 51.4222 46.1577C50.8777 46.1577 50.4445 46.2784 50.1225 46.5199C49.8005 46.7566 49.5875 47.0549 49.4833 47.4148L46.685 47.1875C46.8271 46.5246 47.1064 45.9517 47.5231 45.4688C47.9397 44.9811 48.4772 44.607 49.1353 44.3466C49.7982 44.0814 50.5652 43.9489 51.4364 43.9489C52.0425 43.9489 52.6225 44.0199 53.1765 44.1619C53.7352 44.304 54.23 44.5241 54.6609 44.8224C55.0965 45.1207 55.4397 45.5043 55.6907 45.973C55.9416 46.437 56.0671 46.9934 56.0671 47.642V55H53.1978V53.4872H53.1126C52.9374 53.8281 52.703 54.1288 52.4094 54.3892C52.1159 54.6449 51.7631 54.8461 51.3512 54.9929C50.9393 55.1349 50.4634 55.206 49.9237 55.206ZM50.7901 53.1179C51.2352 53.1179 51.6282 53.0303 51.9691 52.8551C52.31 52.6752 52.5775 52.4337 52.7717 52.1307C52.9658 51.8277 53.0629 51.4844 53.0629 51.1009V49.9432C52.9682 50.0047 52.838 50.0616 52.6722 50.1136C52.5112 50.161 52.329 50.206 52.1254 50.2486C51.9218 50.2865 51.7182 50.322 51.5146 50.3551C51.311 50.3835 51.1263 50.4096 50.9606 50.4332C50.6055 50.4853 50.2953 50.5682 50.0302 50.6818C49.765 50.7955 49.5591 50.9493 49.4123 51.1435C49.2655 51.3329 49.1921 51.5696 49.1921 51.8537C49.1921 52.2656 49.3413 52.5805 49.6396 52.7983C49.9426 53.0114 50.3261 53.1179 50.7901 53.1179ZM61.44 48.6932V55H58.4144V44.0909H61.2979V46.0156H61.4258C61.6673 45.3812 62.0721 44.8793 62.6403 44.5099C63.2085 44.1359 63.8974 43.9489 64.707 43.9489C65.4646 43.9489 66.1251 44.1146 66.6886 44.446C67.252 44.7775 67.69 45.2509 68.0025 45.8665C68.315 46.4773 68.4712 47.2064 68.4712 48.054V55H65.4457V48.5938C65.4504 47.9261 65.2799 47.4053 64.9343 47.0312C64.5887 46.6525 64.1128 46.4631 63.5067 46.4631C63.0996 46.4631 62.7397 46.5507 62.4272 46.7259C62.1194 46.901 61.878 47.1567 61.7028 47.4929C61.5323 47.8243 61.4447 48.2244 61.44 48.6932ZM70.8558 55V44.0909H73.8814V55H70.8558ZM72.3757 42.6847C71.9259 42.6847 71.54 42.5355 71.218 42.2372C70.9008 41.9342 70.7422 41.572 70.7422 41.1506C70.7422 40.7339 70.9008 40.3764 71.218 40.0781C71.54 39.7751 71.9259 39.6236 72.3757 39.6236C72.8255 39.6236 73.209 39.7751 73.5263 40.0781C73.8482 40.3764 74.0092 40.7339 74.0092 41.1506C74.0092 41.572 73.8482 41.9342 73.5263 42.2372C73.209 42.5355 72.8255 42.6847 72.3757 42.6847ZM82.1076 44.0909V46.3636H75.538V44.0909H82.1076ZM77.0295 41.4773H80.055V51.6477C80.055 51.9271 80.0977 52.1449 80.1829 52.3011C80.2681 52.4527 80.3865 52.5592 80.538 52.6207C80.6942 52.6823 80.8742 52.7131 81.0778 52.7131C81.2198 52.7131 81.3619 52.7012 81.5039 52.6776C81.646 52.6491 81.7549 52.6278 81.8306 52.6136L82.3065 54.8651C82.1549 54.9124 81.9419 54.9669 81.6673 55.0284C81.3926 55.0947 81.0588 55.1349 80.6658 55.1491C79.9367 55.1776 79.2975 55.0805 78.7482 54.858C78.2037 54.6354 77.7799 54.2898 77.4769 53.821C77.1739 53.3523 77.0247 52.7604 77.0295 52.0455V41.4773ZM85.9464 59.0909C85.5629 59.0909 85.203 59.0601 84.8668 58.9986C84.5354 58.9418 84.2608 58.8684 84.043 58.7784L84.7248 56.5199C85.0799 56.6288 85.3995 56.688 85.6836 56.6974C85.9724 56.7069 86.221 56.6406 86.4293 56.4986C86.6424 56.3565 86.8152 56.1151 86.9478 55.7741L87.1254 55.3125L83.212 44.0909H86.3938L88.6523 52.1023H88.766L91.0458 44.0909H94.2489L90.0089 56.179C89.8053 56.7661 89.5283 57.2775 89.1779 57.7131C88.8323 58.1534 88.3943 58.492 87.864 58.7287C87.3337 58.9702 86.6945 59.0909 85.9464 59.0909Z" fill="white"/>
</svg>