<svg width="32" height="38" viewBox="0 0 32 38" fill="none" xmlns="http://www.w3.org/2000/svg">
<path fill-rule="evenodd" clip-rule="evenodd" d="M21.5491 37.9971L14.4211 34.3652L10.8571 32.5492L12.673 28.9852L16.3049 21.8572L19.869 23.6731L17.7272 27.8767C23.5362 27.0393 28 22.0409 28 16C28 9.37262 22.6274 4.00003 16 4.00003C9.37258 4.00003 3.99999 9.37262 3.99999 16C3.99999 20.6655 6.66249 24.7092 10.5509 26.6944L8.73614 30.2561C5.24535 28.4775 2.52847 25.4799 1.10055 21.8316C-0.32737 18.1832 -0.367088 14.1378 0.988934 10.4622C2.34495 6.78651 5.00245 3.73613 8.45765 1.88929C11.9128 0.04245 15.9256 -0.472477 19.7351 0.442116C23.5447 1.35671 26.8863 3.63726 29.1264 6.85143C31.3666 10.0656 32.3496 13.99 31.8891 17.8806C31.4286 21.7713 29.5566 25.3578 26.628 27.9602C24.2707 30.0549 21.3607 31.3949 18.2718 31.838L23.3651 34.4331L21.5491 37.9971Z" fill="white"/>
</svg>
