<svg width="32" height="32" viewBox="0 0 32 32" fill="none" xmlns="http://www.w3.org/2000/svg">
<path fill-rule="evenodd" clip-rule="evenodd" d="M32 16C32 24.8365 24.8365 32 16 32C7.16345 32 0 24.8365 0 16C0 7.16345 7.16345 0 16 0C24.8365 0 32 7.16345 32 16ZM28 16C28 22.6274 22.6274 28 16 28C13.4191 28 11.0284 27.1852 9.07129 25.7988L25.7988 9.07126C27.1852 11.0284 28 13.419 28 16ZM22.9774 6.23584C21.0112 4.82837 18.6024 4 16 4C9.37256 4 4 9.37259 4 16C4 18.6024 4.82837 21.0113 6.23584 22.9774L22.9774 6.23584Z" fill="white"/>
</svg>
