<svg width="58" height="57" viewBox="0 0 58 57" fill="none" xmlns="http://www.w3.org/2000/svg">
<path d="M8.96397 29.8625L11.1029 28.8652L15.0332 37.2938C15.3995 38.0793 15.9007 38.6179 16.537 38.9097C17.1797 39.1837 17.9119 39.1292 18.7336 38.746C19.5433 38.3685 20.0497 37.8455 20.2529 37.1769C20.4504 36.4964 20.366 35.7633 19.9998 34.9779L16.0694 26.5492L18.2083 25.5518L22.1809 34.0711C22.5077 34.772 22.686 35.4539 22.7156 36.1168C22.7516 36.7621 22.6544 37.3738 22.4238 37.9521C22.1933 38.5304 21.842 39.0546 21.3698 39.5249C20.8976 39.9952 20.3232 40.3881 19.6465 40.7036C18.9698 41.0192 18.2996 41.2067 17.6358 41.2661C16.9721 41.3255 16.3386 41.2605 15.7353 41.071C15.1441 40.8759 14.613 40.5572 14.1419 40.1148C13.6652 39.6604 13.2634 39.0827 12.9366 38.3818L8.96397 29.8625ZM30.2124 19.9542L32.315 18.9738L38.5275 32.2965L24.9966 27.4619L28.9692 35.9812L26.8665 36.9617L20.6541 23.639L34.185 28.4735L30.2124 19.9542ZM42.3685 29.733L41.4895 27.8479L47.888 24.8642L48.7671 26.7493L42.3685 29.733ZM37.3309 18.9298L36.4519 17.0447L42.8504 14.061L43.7294 15.9462L37.3309 18.9298ZM39.63 23.8602L38.7678 22.0113L44.8038 19.1966L45.666 21.0455L39.63 23.8602ZM35.1287 17.6617L37.2313 16.6813L43.1479 29.3696L41.0453 30.3501L35.1287 17.6617Z" fill="#FFCE30"/>
<path fill-rule="evenodd" clip-rule="evenodd" d="M44.043 30.367C44.1535 30.1965 44.2596 30.0265 44.3614 29.8571L47.2725 28.4996C45.31 33.3711 40.39 38.2696 33.6748 41.4009C22.9707 46.3923 11.7588 45.0033 8.63223 38.2985C7.59241 36.0686 7.57788 33.5315 8.41543 30.9546L9.83573 34.0005C9.75631 35.2582 9.96438 36.4229 10.4449 37.4532C11.6124 39.9571 14.4215 41.7385 18.5578 42.251C22.6618 42.7594 27.7636 41.9506 32.8296 39.5883C37.8955 37.226 41.7945 33.8376 44.043 30.367ZM11.9845 28.1544C11.9303 28.2381 11.8771 28.3216 11.825 28.4051L11.7141 28.1673C11.5974 27.9171 11.2999 27.8088 11.0497 27.9255L9.35047 28.7178C11.6102 24.2899 16.237 19.9723 22.3527 17.1205C28.4137 14.2942 34.6376 13.5136 39.4643 14.5854L36.1047 16.152C32.2628 15.9551 27.7161 16.8263 23.1979 18.9331C18.132 21.2954 14.233 24.6838 11.9845 28.1544Z" fill="#D12C15"/>
</svg>
