<svg width="739" height="256" viewBox="0 0 739 256" fill="none" xmlns="http://www.w3.org/2000/svg">
    <path d="M98.5065 138C27.814 138 -0.4935 147 0.00649985 128C0.00649985 57.3075 57.314 0 128.007 0C168.471 0 204.55 18.7767 228.007 48.0925C158.007 41.5 154.507 78 98.5065 138Z" fill="url(#paint0_linear_204_21)"/>
    <path d="M256.007 128C256.007 165.829 239.596 199.825 213.507 223.258C187.507 201 183.149 198 163.506 176C138.506 148 138.506 146.5 107.506 133C132.338 97.5266 144.741 82.5598 170.924 50.0001C197.506 49.7066 208.506 49.5849 229.006 49.3586C245.926 71.0581 256.007 98.352 256.007 128Z" fill="url(#paint1_linear_204_21)"/>
    <path d="M213.236 223.5C190.603 243.713 160.74 256 128.007 256C60.3397 256 4.93659 203.493 0.317993 137C60.0065 137 61.7309 139.5 135.006 139.5C175.506 187.5 178.006 191 213.236 223.5Z" fill="url(#paint2_linear_204_21)"/>
    <path fill-rule="evenodd" clip-rule="evenodd" d="M195.006 156C204.395 156 212.006 148.389 212.006 139C212.006 129.611 204.395 122 195.006 122C185.618 122 178.006 129.611 178.006 139C178.006 148.389 185.618 156 195.006 156ZM195.006 145C198.32 145 201.006 142.314 201.006 139C201.006 135.686 198.32 133 195.006 133C191.693 133 189.006 135.686 189.006 139C189.006 142.314 191.693 145 195.006 145Z" fill="white"/>
    <path fill-rule="evenodd" clip-rule="evenodd" d="M1.33358 146.5H118.506C120.506 146.5 122.006 147 124.006 149L129.006 154L205.154 230.147C210.365 226.206 215.264 221.875 219.81 217.198L152.006 151.5C149.506 149 149.74 148 150.006 147.5C150.397 146.769 151.006 146.5 155.006 146.5H184.006V129H124.506C123.006 129 121.506 129 121.006 128C120.566 127.119 120.902 126.626 121.672 125.495C121.776 125.343 121.888 125.178 122.006 125C122.613 124.09 172.006 64 173.506 62.5C173.908 62.0981 174.203 61.7679 174.476 61.4615C175.222 60.6244 175.81 59.9641 178.006 58.5C179.914 57.228 182.006 57 183.671 57H234.526C230.486 50.9499 225.943 45.2634 220.959 40L177.506 40C174.006 40 172.506 40.5 170.506 41.4999C168.507 42.4998 168.007 42.9999 166.507 44.4994L166.506 44.4999C165.586 45.4206 140.61 75.0661 121.19 98.1176C108.972 112.62 98.9528 124.513 98.5065 125C98.455 125.056 98.4042 125.112 98.3541 125.166C95.4867 128.298 94.8433 129 85.5065 129H0.0103149C0.0557549 134.938 0.50557 140.78 1.33358 146.5Z" fill="white"/>
    <path d="M498.544 158V113.2H519.024C523.12 113.2 526.64 113.861 529.584 115.184C532.57 116.507 534.874 118.427 536.496 120.944C538.117 123.419 538.928 126.363 538.928 129.776C538.928 133.147 538.117 136.069 536.496 138.544C534.874 141.019 532.57 142.939 529.584 144.304C526.64 145.627 523.12 146.288 519.024 146.288H505.584L511.216 140.784V158H498.544ZM511.216 142.128L505.584 136.304H518.256C520.901 136.304 522.864 135.728 524.144 134.576C525.466 133.424 526.128 131.824 526.128 129.776C526.128 127.685 525.466 126.064 524.144 124.912C522.864 123.76 520.901 123.184 518.256 123.184H505.584L511.216 117.36V142.128ZM559.314 130.544H580.114V140.016H559.314V130.544ZM560.21 148.208H583.634V158H547.666V113.2H582.802V122.992H560.21V148.208ZM592.01 158L611.786 113.2H624.266L644.106 158H630.922L615.434 119.408H620.426L604.938 158H592.01ZM602.826 149.296L606.09 139.952H627.978L631.242 149.296H602.826ZM653.139 158V113.2H673.619C677.715 113.2 681.235 113.861 684.179 115.184C687.165 116.507 689.469 118.427 691.091 120.944C692.712 123.419 693.523 126.363 693.523 129.776C693.523 133.147 692.712 136.069 691.091 138.544C689.469 140.976 687.165 142.853 684.179 144.176C681.235 145.456 677.715 146.096 673.619 146.096H660.179L665.811 140.784V158H653.139ZM680.851 158L669.715 141.68H683.219L694.419 158H680.851ZM665.811 142.128L660.179 136.304H672.851C675.496 136.304 677.459 135.728 678.739 134.576C680.061 133.424 680.723 131.824 680.723 129.776C680.723 127.685 680.061 126.064 678.739 124.912C677.459 123.76 675.496 123.184 672.851 123.184H660.179L665.811 117.36V142.128ZM704.354 158V113.2H717.026V147.952H738.402V158H704.354Z" fill="white"/>
    <path d="M313.017 158V116.144H296.889V113.2H332.409V116.144H316.281V158H313.017ZM345.943 133.808H370.199V136.688H345.943V133.808ZM346.327 155.056H373.975V158H343.063V113.2H373.015V116.144H346.327V155.056ZM383.828 158L404.436 113.2H407.7L428.308 158H424.788L405.332 115.248H406.74L387.348 158H383.828ZM391.38 145.392L392.468 142.64H419.284L420.372 145.392H391.38ZM439.001 158V113.2H441.753L462.553 149.104H461.081L481.817 113.2H484.505L484.569 158H481.369L481.305 118.128H482.201L462.553 152.048H460.953L441.241 118.128H442.201V158H439.001Z" fill="white"/>
    <defs>
        <linearGradient id="paint0_linear_204_21" x1="193.5" y1="13" x2="2.49998" y2="126.5" gradientUnits="userSpaceOnUse">
            <stop stop-color="#1F71E0"/>
            <stop offset="1" stop-color="#061B38"/>
        </linearGradient>
        <linearGradient id="paint1_linear_204_21" x1="219" y1="59" x2="220" y2="218" gradientUnits="userSpaceOnUse">
            <stop stop-color="#430A02"/>
            <stop offset="1" stop-color="#D52D17"/>
        </linearGradient>
        <linearGradient id="paint2_linear_204_21" x1="0.000120709" y1="148" x2="204" y2="231" gradientUnits="userSpaceOnUse">
            <stop stop-color="#32A343"/>
            <stop offset="1" stop-color="#061F0A"/>
        </linearGradient>
    </defs>
</svg>