<?xml version="1.0" encoding="UTF-8"?>
<!DOCTYPE svg PUBLIC "-//W3C//DTD SVG 1.1//EN" "http://www.w3.org/Graphics/SVG/1.1/DTD/svg11.dtd">
<svg xmlns="http://www.w3.org/2000/svg" version="1.1" width="246px" height="191px" style="shape-rendering:geometricPrecision; text-rendering:geometricPrecision; image-rendering:optimizeQuality; fill-rule:evenodd; clip-rule:evenodd" xmlns:xlink="http://www.w3.org/1999/xlink">
    <g><path style="opacity:0.922" fill="#fefafa" d="M 38.5,11.5 C 44.5092,11.3338 50.5092,11.5005 56.5,12C 58.745,14.8959 59.0784,18.0626 57.5,21.5C 58.8909,23.6201 59.5576,25.9534 59.5,28.5C 59.2134,33.9991 58.8801,39.4991 58.5,45C 60.0783,47.9684 60.745,51.1351 60.5,54.5C 59.507,62.9839 59.1736,71.6506 59.5,80.5C 54.8333,80.5 50.1667,80.5 45.5,80.5C 45.5,75.8333 45.5,71.1667 45.5,66.5C 41.1667,66.5 36.8333,66.5 32.5,66.5C 31.1667,66.8333 31.1667,67.1667 32.5,67.5C 33.8333,67.8333 33.8333,68.1667 32.5,68.5C 31.6236,68.3691 30.9569,68.7025 30.5,69.5C 29.9661,71.6145 28.9661,73.4478 27.5,75C 27.8333,75.3333 28.1667,75.6667 28.5,76C 27.1667,77.3333 25.8333,78.6667 24.5,80C 20.1794,80.499 15.8461,80.6657 11.5,80.5C 10.4179,78.1768 10.5846,75.8435 12,73.5C 21.0862,52.9884 29.9196,32.3218 38.5,11.5 Z"/></g>
    <g><path style="opacity:0.885" fill="#fefbfc" d="M 76.5,11.5 C 87.8333,11.5 99.1667,11.5 110.5,11.5C 110.822,19.6022 109.155,26.9356 105.5,33.5C 98.0715,44.0234 91.4048,54.0234 85.5,63.5C 90.456,64.4941 95.456,64.8275 100.5,64.5C 101.88,64.9623 102.547,65.9623 102.5,67.5C 101.507,71.7908 100.84,76.1241 100.5,80.5C 88.1667,80.5 75.8333,80.5 63.5,80.5C 63.6846,75.3926 64.5179,70.3926 66,65.5C 74.4615,52.0747 83.2949,38.9081 92.5,26C 88.8333,25.3333 85.1667,25.3333 81.5,26C 80.2625,26.2321 79.2625,26.7321 78.5,27.5C 77.1667,27.5 75.8333,27.5 74.5,27.5C 74.845,22.1221 75.5117,16.7888 76.5,11.5 Z"/></g>
    <g><path style="opacity:0.908" fill="#fefafb" d="M 122.5,11.5 C 127.511,11.3341 132.511,11.5007 137.5,12C 138.814,12.985 139.814,14.1516 140.5,15.5C 140.5,15.8333 140.5,16.1667 140.5,16.5C 139.876,16.9169 139.543,17.5836 139.5,18.5C 141.507,30.1961 143.674,41.8628 146,53.5C 148.391,39.4902 150.891,25.4902 153.5,11.5C 157.514,11.3345 161.514,11.5012 165.5,12C 167.425,14.4654 167.425,17.132 165.5,20C 166.815,21.3946 166.481,22.3946 164.5,23C 164.566,25.8671 164.566,28.7005 164.5,31.5C 164.023,32.4776 163.357,33.3109 162.5,34C 162.501,35.3988 162.835,36.8988 163.5,38.5C 162.975,39.1924 162.308,39.6924 161.5,40C 162.488,42.4199 162.155,44.7533 160.5,47C 160.5,50 160.5,53 160.5,56C 158.311,56.677 157.978,57.8437 159.5,59.5C 158.833,61.1667 158.167,62.8333 157.5,64.5C 157.5,67.5 157.5,70.5 157.5,73.5C 157.218,75.8352 155.885,78.0019 153.5,80C 148.511,80.4993 143.511,80.6659 138.5,80.5C 136.848,66.2508 134.014,52.2508 130,38.5C 127.237,50.009 125.737,61.6757 125.5,73.5C 125.5,73.8333 125.5,74.1667 125.5,74.5C 125.167,75.1667 124.833,75.8333 124.5,76.5C 125.605,78.3 124.939,79.4666 122.5,80C 118.514,80.4988 114.514,80.6655 110.5,80.5C 114.025,57.4036 118.025,34.4036 122.5,11.5 Z"/></g>
    <g><path style="opacity:0.995" fill="#d9153c" d="M 153.5,11.5 C 150.891,25.4902 148.391,39.4902 146,53.5C 143.674,41.8628 141.507,30.1961 139.5,18.5C 139.543,17.5836 139.876,16.9169 140.5,16.5C 141.833,16.1667 141.833,15.8333 140.5,15.5C 140.511,13.9826 141.177,12.8159 142.5,12C 146.152,11.5014 149.818,11.3347 153.5,11.5 Z"/></g>
    <g><path style="opacity:0.91" fill="#d21034" d="M 76.5,11.5 C 75.5117,16.7888 74.845,22.1221 74.5,27.5C 70.7604,27.7592 67.0938,27.4259 63.5,26.5C 62.8316,24.0743 62.4982,21.741 62.5,19.5C 63.3076,17.0748 64.3076,14.7415 65.5,12.5C 69.0938,11.5741 72.7604,11.2408 76.5,11.5 Z"/></g>
    <g><path style="opacity:0.999" fill="#d91039" d="M 110.5,11.5 C 114.5,11.5 118.5,11.5 122.5,11.5C 118.025,34.4036 114.025,57.4036 110.5,80.5C 107.167,80.5 103.833,80.5 100.5,80.5C 100.84,76.1241 101.507,71.7908 102.5,67.5C 102.547,65.9623 101.88,64.9623 100.5,64.5C 100.665,62.1732 101.331,60.0065 102.5,58C 102.043,57.586 101.709,57.086 101.5,56.5C 101.864,54.2674 102.864,52.434 104.5,51C 104.056,49.4667 103.723,47.9667 103.5,46.5C 104.093,44.6183 104.76,42.7849 105.5,41C 105.087,38.2835 105.087,35.7835 105.5,33.5C 109.155,26.9356 110.822,19.6022 110.5,11.5 Z"/></g>
    <g><path style="opacity:0.969" fill="#d50e38" d="M 38.5,11.5 C 29.9196,32.3218 21.0862,52.9884 12,73.5C 10.5846,75.8435 10.4179,78.1768 11.5,80.5C 7.5,80.5 3.5,80.5 -0.5,80.5C -0.5,78.1667 -0.5,75.8333 -0.5,73.5C 8.84212,53.452 17.6755,33.452 26,13.5C 29.922,11.6876 34.0887,11.021 38.5,11.5 Z"/></g>
    <g><path style="opacity:0.988" fill="#dd123c" d="M 63.5,80.5 C 62.1667,80.5 60.8333,80.5 59.5,80.5C 59.1736,71.6506 59.507,62.9839 60.5,54.5C 66.7991,46.3786 72.7991,37.3786 78.5,27.5C 79.2625,26.7321 80.2625,26.2321 81.5,26C 85.1667,25.3333 88.8333,25.3333 92.5,26C 83.2949,38.9081 74.4615,52.0747 66,65.5C 64.5179,70.3926 63.6846,75.3926 63.5,80.5 Z"/></g>
    <g><path style="opacity:1" fill="#e20d3c" d="M 43.5,28.5 C 44.493,36.9839 44.8264,45.6506 44.5,54.5C 41.1667,54.5 37.8333,54.5 34.5,54.5C 37.1018,45.6944 40.1018,37.0278 43.5,28.5 Z"/></g>
    <g><path style="opacity:1" fill="#e76b88" d="M 43.5,28.5 C 43.56,27.9569 43.8933,27.6236 44.5,27.5C 45.4983,36.8096 45.8316,46.1429 45.5,55.5C 41.6286,55.815 37.9619,55.4816 34.5,54.5C 37.8333,54.5 41.1667,54.5 44.5,54.5C 44.8264,45.6506 44.493,36.9839 43.5,28.5 Z"/></g>
    <g><path style="opacity:0.999" fill="#d9183d" d="M 138.5,80.5 C 135.15,80.665 131.817,80.4983 128.5,80C 127.468,78.3732 126.134,77.2066 124.5,76.5C 124.833,75.8333 125.167,75.1667 125.5,74.5C 126.833,74.1667 126.833,73.8333 125.5,73.5C 125.737,61.6757 127.237,50.009 130,38.5C 134.014,52.2508 136.848,66.2508 138.5,80.5 Z"/></g>
    <g><path style="opacity:0.969" fill="#d21136" d="M 32.5,67.5 C 32.5,67.1667 32.5,66.8333 32.5,66.5C 36.8333,66.5 41.1667,66.5 45.5,66.5C 45.5,71.1667 45.5,75.8333 45.5,80.5C 41.3628,80.8537 37.3628,80.3537 33.5,79C 32.5442,75.6064 32.2108,72.1064 32.5,68.5C 33.8333,68.1667 33.8333,67.8333 32.5,67.5 Z"/></g>
    <g><path style="opacity:0.923" fill="#fefafa" d="M 167.5,98.5 C 171.007,99.6689 174.507,99.6689 178,98.5C 181.875,99.4698 185.042,100.803 187.5,102.5C 188.472,103.399 189.138,104.566 189.5,106C 188.631,108.9 187.631,111.733 186.5,114.5C 184.871,115.625 183.371,116.959 182,118.5C 180.615,117.449 179.615,116.116 179,114.5C 178.023,115.774 177.189,115.774 176.5,114.5C 174.49,112.42 172.157,112.087 169.5,113.5C 168.614,114.325 168.281,115.325 168.5,116.5C 167.784,118.556 167.117,120.723 166.5,123C 172.645,127.374 177.978,131.874 182.5,136.5C 182.5,137.167 182.833,137.5 183.5,137.5C 183.433,141.693 183.266,146.026 183,150.5C 181.826,154.178 180.659,157.844 179.5,161.5C 178.167,161.833 178.167,162.167 179.5,162.5C 179.167,163.167 178.833,163.833 178.5,164.5C 174.746,166.544 170.746,168.21 166.5,169.5C 162.575,169.227 158.575,169.56 154.5,170.5C 151.453,168.336 148.119,166.336 144.5,164.5C 143.585,163.672 142.919,162.672 142.5,161.5C 144.393,159.048 145.726,156.381 146.5,153.5C 147.801,152.36 148.968,151.027 150,149.5C 151.145,150.636 152.312,151.636 153.5,152.5C 154.874,154.959 157.04,155.959 160,155.5C 166.843,154.979 169.509,151.313 168,144.5C 164.107,140.806 159.94,137.473 155.5,134.5C 147.844,123.241 149.177,113.074 159.5,104C 161.717,102.725 164.051,101.725 166.5,101C 167.252,100.329 167.586,99.4959 167.5,98.5 Z"/></g>
    <g><path style="opacity:0.892" fill="#fefcfb" d="M 23.5,100.5 C 33.8333,100.5 44.1667,100.5 54.5,100.5C 54.4867,105.26 53.8201,109.926 52.5,114.5C 51.5832,115.127 50.5832,115.461 49.5,115.5C 45.4454,115.176 41.4454,115.509 37.5,116.5C 36.5731,119.713 35.5731,122.88 34.5,126C 38.6346,127.431 42.968,127.931 47.5,127.5C 48.6378,130.304 48.8045,133.304 48,136.5C 47.9005,138.653 47.0672,140.319 45.5,141.5C 41.1161,141.174 36.7828,141.508 32.5,142.5C 32.6594,145.515 31.6594,148.348 29.5,151C 32.1667,152 32.1667,153 29.5,154C 30.2205,159.081 29.2205,163.914 26.5,168.5C 21.8804,169.493 17.2137,169.827 12.5,169.5C 15.8418,146.449 19.5085,123.449 23.5,100.5 Z"/></g>
    <g><path style="opacity:0.859" fill="#fefcfc" d="M 64.5,100.5 C 69.7616,100.195 74.9283,100.529 80,101.5C 80.6029,104.656 80.1029,107.656 78.5,110.5C 80.0224,112.156 79.689,113.323 77.5,114C 78.727,115.587 78.3937,116.921 76.5,118C 77.1569,121.686 77.1569,125.519 76.5,129.5C 75.9747,130.192 75.3081,130.692 74.5,131C 75.0219,131.561 75.3552,132.228 75.5,133C 73.9974,139.788 72.6641,146.288 71.5,152.5C 74.7683,153.487 78.1016,153.82 81.5,153.5C 83.3792,154.341 85.3792,154.675 87.5,154.5C 86.3433,158.216 86.3433,161.883 87.5,165.5C 86.8592,166.482 86.1925,167.482 85.5,168.5C 74.8541,169.499 64.1874,169.832 53.5,169.5C 56.7708,146.472 60.4375,123.472 64.5,100.5 Z"/></g>
    <g><path style="opacity:0.929" fill="#fdfbfa" d="M 101.5,100.5 C 106.511,100.334 111.511,100.501 116.5,101C 117.727,102.587 117.394,103.921 115.5,105C 116.833,106 116.833,107 115.5,108C 116.044,108.717 116.711,109.217 117.5,109.5C 117.5,110.167 117.167,110.5 116.5,110.5C 114.625,112.594 114.292,114.928 115.5,117.5C 114.761,117.369 114.094,117.536 113.5,118C 113.571,121.227 113.571,124.393 113.5,127.5C 112.711,127.783 112.044,128.283 111.5,129C 111.565,130.829 111.898,132.662 112.5,134.5C 111.761,134.369 111.094,134.536 110.5,135C 110.571,138.227 110.571,141.393 110.5,144.5C 110.5,144.833 110.5,145.167 110.5,145.5C 109.596,146.209 109.263,147.209 109.5,148.5C 109.307,155.375 112.307,157.209 118.5,154C 120.617,152.269 122.117,150.102 123,147.5C 126.072,131.923 128.572,116.257 130.5,100.5C 135.833,100.5 141.167,100.5 146.5,100.5C 146.5,101.5 146.5,102.5 146.5,103.5C 143.316,112.097 141.316,121.097 140.5,130.5C 140.5,130.833 140.5,131.167 140.5,131.5C 140.5,131.833 140.5,132.167 140.5,132.5C 140.5,133.167 140.833,133.5 141.5,133.5C 140.756,139.279 139.756,144.946 138.5,150.5C 137.508,150.328 136.842,150.662 136.5,151.5C 136.611,152.117 136.944,152.617 137.5,153C 135.035,156.107 132.702,159.274 130.5,162.5C 130.5,162.833 130.5,163.167 130.5,163.5C 130.5,163.833 130.5,164.167 130.5,164.5C 127.847,166.724 124.847,168.391 121.5,169.5C 120.833,168.167 120.167,168.167 119.5,169.5C 115.87,169.646 112.203,169.979 108.5,170.5C 96.395,165.634 91.5616,156.634 94,143.5C 97.0452,129.258 99.5452,114.924 101.5,100.5 Z M 116.5,110.5 C 117.315,112.931 116.982,115.264 115.5,117.5C 114.292,114.928 114.625,112.594 116.5,110.5 Z M 115.5,117.5 C 116.102,119.338 116.435,121.171 116.5,123C 115.219,124.409 114.219,125.909 113.5,127.5C 113.571,124.393 113.571,121.227 113.5,118C 114.094,117.536 114.761,117.369 115.5,117.5 Z M 113.5,127.5 C 113.802,130.059 113.468,132.393 112.5,134.5C 111.898,132.662 111.565,130.829 111.5,129C 112.044,128.283 112.711,127.783 113.5,127.5 Z M 112.5,134.5 C 113.328,138.047 112.661,141.381 110.5,144.5C 110.571,141.393 110.571,138.227 110.5,135C 111.094,134.536 111.761,134.369 112.5,134.5 Z"/></g>
    <g><path style="opacity:0.883" fill="#fefcfb" d="M 200.5,100.5 C 205.511,100.334 210.511,100.501 215.5,101C 218.028,102.316 218.028,103.483 215.5,104.5C 216.289,106.865 215.956,109.199 214.5,111.5C 214.5,114.5 214.5,117.5 214.5,120.5C 212.585,121.917 212.585,123.584 214.5,125.5C 218.735,126.436 223.069,126.769 227.5,126.5C 228.626,117.793 229.959,109.126 231.5,100.5C 236.167,100.5 240.833,100.5 245.5,100.5C 245.5,104.167 245.5,107.833 245.5,111.5C 244.167,111.833 244.167,112.167 245.5,112.5C 245.5,113.5 245.5,114.5 245.5,115.5C 243.992,117.171 243.659,119.004 244.5,121C 242.311,121.677 241.978,122.844 243.5,124.5C 242.833,126.167 242.167,127.833 241.5,129.5C 241.587,132.37 241.587,135.203 241.5,138C 240.833,138.667 240.167,139.333 239.5,140C 239.566,142.867 239.566,145.7 239.5,148.5C 237.934,150.962 237.601,153.462 238.5,156C 237.833,156.333 237.167,156.667 236.5,157C 236.782,159.911 236.782,162.744 236.5,165.5C 235.687,166.814 234.687,167.981 233.5,169C 229.179,169.499 224.846,169.666 220.5,169.5C 220.964,159.38 222.298,149.38 224.5,139.5C 220.4,139.237 216.4,139.57 212.5,140.5C 211.25,140.577 210.417,141.244 210,142.5C 208.783,144.52 208.617,146.52 209.5,148.5C 208.966,150.614 207.966,152.448 206.5,154C 209.167,155 209.167,156 206.5,157C 206.957,157.414 207.291,157.914 207.5,158.5C 206.296,161.26 205.796,163.927 206,166.5C 205.167,167.333 204.333,168.167 203.5,169C 199.179,169.499 194.846,169.666 190.5,169.5C 193.939,146.53 197.272,123.53 200.5,100.5 Z"/></g>
    <g><path style="opacity:0.988" fill="#db113a" d="M 54.5,100.5 C 57.8333,100.5 61.1667,100.5 64.5,100.5C 60.4375,123.472 56.7708,146.472 53.5,169.5C 49.5633,169.793 45.73,169.46 42,168.5C 41.9012,165.852 41.7346,163.352 41.5,161C 43.1445,159.968 43.4779,158.801 42.5,157.5C 43.8722,155.309 44.2055,153.142 43.5,151C 44.6406,147.65 45.3072,144.483 45.5,141.5C 47.0672,140.319 47.9005,138.653 48,136.5C 48.8045,133.304 48.6378,130.304 47.5,127.5C 47.682,124.906 48.682,122.739 50.5,121C 48.1088,120.309 48.1088,119.309 50.5,118C 49.7476,117.329 49.4142,116.496 49.5,115.5C 50.5832,115.461 51.5832,115.127 52.5,114.5C 53.8201,109.926 54.4867,105.26 54.5,100.5 Z"/></g>
    <g><path style="opacity:0.971" fill="#dc113b" d="M 200.5,100.5 C 197.272,123.53 193.939,146.53 190.5,169.5C 186.818,169.665 183.152,169.499 179.5,169C 177.452,167.774 177.119,166.274 178.5,164.5C 178.833,163.833 179.167,163.167 179.5,162.5C 179.5,162.167 179.5,161.833 179.5,161.5C 180.659,157.844 181.826,154.178 183,150.5C 183.266,146.026 183.433,141.693 183.5,137.5C 182.833,137.5 182.5,137.167 182.5,136.5C 182.682,133.906 183.682,131.739 185.5,130C 185.056,128.467 184.723,126.967 184.5,125.5C 186.441,121.925 187.108,118.259 186.5,114.5C 187.631,111.733 188.631,108.9 189.5,106C 189.138,104.566 188.472,103.399 187.5,102.5C 191.527,100.642 195.86,99.9749 200.5,100.5 Z"/></g>
    <g><path style="opacity:1" fill="#dd133b" d="M 231.5,100.5 C 229.959,109.126 228.626,117.793 227.5,126.5C 223.069,126.769 218.735,126.436 214.5,125.5C 214.577,124.25 215.244,123.417 216.5,123C 216.056,121.467 215.723,119.967 215.5,118.5C 217.702,112.465 219.035,106.465 219.5,100.5C 223.5,100.5 227.5,100.5 231.5,100.5 Z"/></g>
    <g><path style="opacity:0.988" fill="#da0c38" d="M 23.5,100.5 C 19.5085,123.449 15.8418,146.449 12.5,169.5C 8.76043,169.759 5.09377,169.426 1.5,168.5C 0.0622822,166.002 0.395616,163.836 2.5,162C 1.91798,158.164 1.91798,154.164 2.5,150C 2.90536,149.055 3.57203,148.388 4.5,148C 4.58663,145.203 4.58663,142.37 4.5,139.5C 5.03621,134.345 6.36954,129.178 8.5,124C 8.04265,123.586 7.70931,123.086 7.5,122.5C 7.95168,117.329 9.28502,112.163 11.5,107C 10.3166,104.845 10.6499,102.845 12.5,101C 16.1516,100.501 19.8183,100.335 23.5,100.5 Z"/></g>
    <g><path style="opacity:0.984" fill="#dc0e39" d="M 101.5,100.5 C 99.5452,114.924 97.0452,129.258 94,143.5C 91.5616,156.634 96.395,165.634 108.5,170.5C 105.146,169.49 101.813,169.49 98.5,170.5C 94.7085,169.783 91.0418,168.117 87.5,165.5C 86.3433,161.883 86.3433,158.216 87.5,154.5C 85.3792,154.675 83.3792,154.341 81.5,153.5C 81.1537,149.205 81.1537,145.038 81.5,141C 82.3146,139.057 83.3146,137.057 84.5,135C 84.0563,133.467 83.723,131.967 83.5,130.5C 84.3508,125.486 85.6842,120.32 87.5,115C 86.0745,113.286 86.4078,111.953 88.5,111C 87.7146,108.958 88.048,106.958 89.5,105C 88.4829,103.951 88.3162,102.784 89,101.5C 93.0659,100.536 97.2325,100.203 101.5,100.5 Z"/></g>
    <g><path style="opacity:0.966" fill="#dd0e3a" d="M 130.5,100.5 C 128.572,116.257 126.072,131.923 123,147.5C 122.117,150.102 120.617,152.269 118.5,154C 112.307,157.209 109.307,155.375 109.5,148.5C 110.404,147.791 110.737,146.791 110.5,145.5C 110.5,145.167 110.5,144.833 110.5,144.5C 112.661,141.381 113.328,138.047 112.5,134.5C 113.468,132.393 113.802,130.059 113.5,127.5C 114.219,125.909 115.219,124.409 116.5,123C 116.435,121.171 116.102,119.338 115.5,117.5C 116.982,115.264 117.315,112.931 116.5,110.5C 117.167,110.5 117.5,110.167 117.5,109.5C 118.047,106.681 118.713,103.848 119.5,101C 123.152,100.501 126.818,100.335 130.5,100.5 Z"/></g>
    <g><path style="opacity:0.949" fill="#e3374c" d="M 176.5,114.5 C 174.606,115.048 172.94,116.048 171.5,117.5C 170.583,116.873 169.583,116.539 168.5,116.5C 168.281,115.325 168.614,114.325 169.5,113.5C 172.157,112.087 174.49,112.42 176.5,114.5 Z"/></g>
    <g><path style="opacity:0.972" fill="#e00f3b" d="M 167.5,98.5 C 167.586,99.4959 167.252,100.329 166.5,101C 164.051,101.725 161.717,102.725 159.5,104C 149.177,113.074 147.844,123.241 155.5,134.5C 159.94,137.473 164.107,140.806 168,144.5C 169.509,151.313 166.843,154.979 160,155.5C 157.04,155.959 154.874,154.959 153.5,152.5C 155.088,151.359 156.421,149.859 157.5,148C 156.228,146.693 155.228,145.193 154.5,143.5C 149.888,140.38 145.554,137.047 141.5,133.5C 140.833,133.5 140.5,133.167 140.5,132.5C 140.5,132.167 140.5,131.833 140.5,131.5C 141.833,131.167 141.833,130.833 140.5,130.5C 141.316,121.097 143.316,112.097 146.5,103.5C 150.151,101.556 153.984,99.8889 158,98.5C 161.212,99.7981 164.378,99.7981 167.5,98.5 Z"/></g>
    <g><path style="opacity:0.983" fill="#d71138" d="M 220.5,169.5 C 216.818,169.665 213.152,169.499 209.5,169C 207.353,166.838 207.353,164.504 209.5,162C 209.508,158.983 209.508,155.983 209.5,153C 211.312,148.793 212.312,144.627 212.5,140.5C 216.4,139.57 220.4,139.237 224.5,139.5C 222.298,149.38 220.964,159.38 220.5,169.5 Z"/></g>
    <g><path style="opacity:0.968" fill="#da1039" d="M 146.5,153.5 C 145.726,156.381 144.393,159.048 142.5,161.5C 142.919,162.672 143.585,163.672 144.5,164.5C 148.119,166.336 151.453,168.336 154.5,170.5C 150.77,169.718 147.103,169.384 143.5,169.5C 138.902,168.303 134.569,166.637 130.5,164.5C 130.5,164.167 130.5,163.833 130.5,163.5C 131.833,163.167 131.833,162.833 130.5,162.5C 132.702,159.274 135.035,156.107 137.5,153C 136.944,152.617 136.611,152.117 136.5,151.5C 137.492,151.672 138.158,151.338 138.5,150.5C 140.695,149.781 142.195,150.781 143,153.5C 143.986,152.829 145.153,152.829 146.5,153.5 Z"/></g>
    <g><path style="opacity:0.004" fill="#fefffe" d="M 119.5,169.5 C 120.167,169.5 120.833,169.5 121.5,169.5C 120.833,170.833 120.167,170.833 119.5,169.5 Z"/></g>
    <g><path style="opacity:0.004" fill="#000000" d="M 143.5,169.5 C 142.833,170.167 142.833,170.167 143.5,169.5 Z"/></g>
    <g><path style="opacity:0.004" fill="#fefffe" d="M 166.5,169.5 C 167.833,170.167 167.833,170.167 166.5,169.5 Z"/></g>
</svg>